{"glyphs":{":":{"x_min":0,"x_max":240,"ha":240,"o":"m 124 460 q 150 460 167 443 q 184 425 184 401 q 184 376 167 359 q 149 342 125 342 q 101 342 83 359 q 66 376 66 401 q 66 426 84 443 q 102 460 124 460 z m 120 103 q 146 103 163 85 q 180 68 180 44 q 180 20 163 3 q 146 -14 121 -14 q 97 -14 79 3 q 62 20 62 44 q 62 70 80 86 q 98 103 120 103 z"},"$":{"x_min":0,"x_max":458,"ha":458,"o":"m 232 714 l 267 714 l 267 638 l 286 638 q 328 639 398 614 l 398 462 l 365 462 q 350 583 267 604 l 267 369 q 291 351 320 331 q 396 280 413 249 q 430 217 430 184 q 430 123 383 72 q 336 21 267 -7 l 267 -89 l 232 -89 l 232 -13 l 201 -14 q 136 -14 57 20 l 57 191 l 89 191 q 110 28 232 20 l 232 283 q 113 361 92 396 q 70 432 70 467 q 70 523 119 571 q 168 619 232 634 z m 232 393 l 232 605 q 194 602 169 578 q 144 554 144 516 q 144 483 166 452 q 188 421 232 393 z m 267 257 l 267 23 q 354 45 354 131 q 354 167 332 199 q 311 230 267 257 z"},"?":{"x_min":0,"x_max":448,"ha":448,"o":"m 46 564 q 182 639 290 639 q 358 639 396 609 q 433 580 433 529 q 433 454 340 371 q 286 322 261 286 q 236 250 228 220 q 219 191 218 150 l 170 150 q 171 225 188 271 q 204 316 255 385 q 296 441 311 471 q 325 500 325 527 q 325 565 301 587 q 277 610 237 610 q 175 610 129 555 q 83 500 79 417 l 46 417 z m 192 104 q 218 104 235 87 q 252 69 252 45 q 252 21 235 3 q 217 -14 193 -14 q 169 -14 152 3 q 135 21 135 45 q 135 70 153 87 q 170 104 192 104 z"},"<":{"x_min":0,"x_max":667,"ha":667,"o":"m 597 69 l 69 292 l 69 339 l 597 561 l 597 503 l 140 315 l 597 126 z"},"'":{"x_min":0,"x_max":156,"ha":156,"o":"m 98 380 l 79 380 l 55 539 q 49 578 49 592 q 49 610 60 624 q 70 639 91 639 q 109 639 120 625 q 130 611 130 592 q 130 569 125 537 z"},"=":{"x_min":0,"x_max":667,"ha":667,"o":"m 69 457 l 597 457 l 597 404 l 69 404 z m 69 229 l 597 229 l 597 176 l 69 176 z"},"a":{"x_min":0,"x_max":469,"ha":469,"o":"m 76 387 q 188 461 287 461 q 333 461 354 440 q 375 420 374 371 l 374 66 q 374 44 394 44 q 414 44 463 89 l 463 59 q 389 -14 342 -14 q 300 -14 300 33 l 300 105 q 239 42 197 14 q 154 -14 117 -14 q 80 -14 54 14 q 28 43 28 84 q 28 190 300 312 l 300 371 q 300 398 284 416 q 268 433 239 433 q 191 433 153 386 q 116 339 108 270 l 76 270 z m 305 273 q 215 254 159 209 q 103 164 103 117 q 103 86 121 68 q 140 50 170 50 q 227 50 265 110 q 304 169 305 273 z"},"L":{"x_min":0,"x_max":469,"ha":469,"o":"m 32 625 l 271 625 l 271 601 q 227 600 212 584 q 197 569 197 523 l 197 23 l 260 23 q 408 23 436 179 l 471 179 l 429 -23 l 406 -23 q 406 0 385 0 l 32 0 l 32 23 q 75 24 91 40 q 106 57 106 101 l 106 523 q 106 571 89 585 q 73 600 32 601 z"},"3":{"x_min":0,"x_max":552,"ha":552,"o":"m 110 566 q 168 603 221 621 q 274 639 321 639 q 375 639 415 613 q 455 586 455 536 q 455 481 405 438 q 354 394 250 352 q 284 354 300 354 q 399 354 449 323 q 498 292 498 229 q 498 136 412 61 q 327 -14 225 -14 q 161 -14 80 17 l 80 180 l 113 180 q 122 104 167 62 q 213 21 271 21 q 331 21 369 62 q 408 104 408 172 q 408 247 367 288 q 327 329 250 329 l 169 329 l 169 352 q 249 360 307 419 q 365 478 365 537 q 365 567 344 590 q 324 613 287 613 q 229 613 188 556 q 146 500 144 418 l 110 418 z"},";":{"x_min":0,"x_max":240,"ha":240,"o":"m 120 459 q 146 459 163 442 q 180 424 180 400 q 180 376 163 359 q 146 341 121 341 q 97 341 79 359 q 62 376 62 400 q 62 426 80 443 q 98 459 120 459 z m 61 -218 l 61 -190 q 115 -151 142 -109 q 169 -68 169 -24 q 169 -2 154 23 q 146 12 135 6 q 124 0 109 0 q 85 0 73 15 q 61 30 61 48 q 61 73 82 90 q 103 108 135 108 q 175 108 199 83 q 224 59 224 17 q 224 -48 183 -107 q 142 -166 61 -218 z"},"J":{"x_min":0,"x_max":292,"ha":292,"o":"m -39 -57 q -35 -106 -15 -134 q 5 -162 33 -162 q 66 -162 87 -124 q 107 -85 107 0 l 107 523 q 107 571 90 586 q 74 600 33 601 l 33 625 l 271 625 l 271 601 q 228 600 213 584 q 197 568 197 523 l 197 114 q 197 32 165 -42 q 133 -117 82 -169 q 32 -221 -22 -221 q -44 -221 -73 -212 l -73 -57 z"},"V":{"x_min":0,"x_max":615,"ha":615,"o":"m 19 625 l 191 625 l 191 601 q 172 601 172 587 q 172 580 178 563 l 333 117 l 432 369 q 473 473 473 536 q 473 568 456 584 q 440 601 396 601 l 396 625 l 615 625 l 615 601 q 562 601 514 480 l 314 -21 l 286 -21 l 110 489 q 71 600 19 601 z"},"\"":{"x_min":0,"x_max":323,"ha":323,"o":"m 101 380 l 82 380 l 58 539 q 52 578 52 592 q 52 610 63 624 q 73 639 94 639 q 112 639 123 625 q 133 611 133 592 q 133 569 127 537 z m 262 380 l 243 380 l 219 539 q 213 578 213 592 q 213 610 224 624 q 234 639 254 639 q 273 639 284 625 q 294 611 294 592 q 294 569 289 537 z"},"7":{"x_min":0,"x_max":552,"ha":552,"o":"m 93 647 l 116 647 l 116 644 q 116 625 143 625 l 512 625 l 512 594 q 377 422 333 284 q 289 146 285 0 l 196 0 q 202 114 226 193 q 250 273 306 357 q 363 441 386 471 l 450 551 l 191 551 q 146 551 131 533 q 117 516 116 476 l 93 476 z"},"S":{"x_min":0,"x_max":448,"ha":448,"o":"m 107 366 q 85 387 73 412 q 62 436 62 463 q 62 533 126 586 q 191 639 277 639 q 321 639 393 614 l 393 460 l 357 460 q 354 524 318 565 q 283 605 232 605 q 191 605 164 580 q 137 554 137 515 q 137 478 164 445 q 190 412 291 344 q 368 293 395 261 q 421 229 421 182 q 421 105 350 46 q 280 -14 190 -14 q 126 -14 47 17 l 47 192 l 82 192 q 82 118 125 68 q 167 19 227 19 q 281 19 312 50 q 344 82 344 131 q 344 173 318 206 q 292 237 200 298 q 150 332 107 366 z"},"}":{"x_min":0,"x_max":479,"ha":479,"o":"m 339 245 l 339 227 q 274 212 248 181 q 223 150 223 119 q 223 95 230 60 q 244 -3 244 -32 q 244 -101 198 -154 q 151 -207 73 -219 l 73 -200 q 123 -192 152 -161 q 181 -129 181 -88 q 181 -65 175 -33 q 161 47 161 70 q 161 124 199 167 q 237 209 300 234 q 162 291 162 405 q 162 430 175 493 q 184 534 184 559 q 184 646 73 672 l 73 690 q 150 676 198 623 q 245 570 245 501 q 245 473 232 415 q 223 375 223 360 q 223 317 255 285 q 286 253 339 245 z"},"Z":{"x_min":0,"x_max":594,"ha":594,"o":"m 67 646 l 90 646 q 91 625 108 625 l 546 625 l 546 596 l 143 23 l 290 23 q 414 23 471 59 q 529 94 546 180 l 581 180 l 541 -21 l 518 -21 q 517 0 506 0 l 38 0 l 38 28 l 440 601 l 295 601 q 192 601 148 569 q 104 536 101 461 l 67 461 z"},"x":{"x_min":0,"x_max":521,"ha":521,"o":"m 35 447 l 213 447 l 213 424 q 194 423 194 410 q 194 404 198 398 l 280 278 q 305 307 324 334 q 344 361 344 388 q 344 423 295 424 l 295 447 l 493 447 l 493 424 q 454 422 414 388 q 374 355 295 255 l 394 116 q 418 82 448 53 q 477 25 513 23 l 513 0 l 338 0 l 338 23 q 354 23 354 34 q 354 42 346 52 l 247 195 q 207 147 190 119 q 174 91 174 65 q 174 24 232 23 l 232 0 l 15 0 l 15 23 q 76 29 167 138 l 232 218 l 150 334 q 121 375 94 399 q 66 423 35 424 z"},")":{"x_min":0,"x_max":354,"ha":354,"o":"m 23 659 l 23 689 q 88 647 135 592 q 183 538 218 467 q 253 396 253 291 q 253 152 188 52 q 122 -49 23 -114 l 23 -83 q 99 -1 126 82 q 153 165 153 292 q 153 420 125 501 q 96 581 23 659 z"},"&":{"x_min":0,"x_max":635,"ha":635,"o":"m 198 347 q 145 448 145 504 q 145 572 212 605 q 279 639 344 639 q 388 639 421 617 q 455 596 455 556 q 455 527 435 500 q 415 474 342 428 q 305 404 282 388 q 351 276 386 224 q 431 294 444 388 l 619 388 l 619 363 q 498 363 402 202 q 501 70 545 70 q 576 70 623 147 l 644 138 q 594 43 565 15 q 536 -14 513 -14 q 456 -14 346 122 q 282 41 243 13 q 205 -14 164 -14 q 110 -14 73 28 q 35 71 35 125 q 35 223 198 347 z m 271 408 q 334 465 354 494 q 374 523 374 554 q 374 578 356 595 q 339 612 308 612 q 272 612 250 588 q 229 564 229 529 q 229 488 271 408 z m 208 328 q 128 245 128 166 q 128 119 153 89 q 177 59 214 59 q 268 59 333 139 q 251 249 208 328 z"},"_":{"x_min":0,"x_max":500,"ha":500,"o":"m -6 -75 l 506 -75 l 506 -125 l -6 -125 z"},"v":{"x_min":0,"x_max":479,"ha":479,"o":"m 6 447 l 164 447 l 164 424 q 145 424 145 406 q 145 397 150 383 l 254 90 l 315 243 q 346 319 346 366 q 346 396 330 410 q 313 423 275 424 l 275 447 l 484 447 l 484 424 q 428 418 379 301 l 242 -22 l 216 -22 l 91 329 q 58 423 6 424 z"},"O":{"x_min":0,"x_max":729,"ha":729,"o":"m 390 639 q 472 639 535 606 q 598 574 645 506 q 692 438 692 342 q 692 238 634 152 q 575 65 496 26 q 418 -14 332 -14 q 209 -14 123 71 q 37 155 37 281 q 37 426 145 532 q 252 639 390 639 z m 329 593 q 238 593 179 530 q 120 467 120 363 q 120 210 209 120 q 298 29 404 29 q 488 29 549 93 q 610 156 610 256 q 610 349 569 431 q 529 513 459 553 q 389 593 329 593 z"},"(":{"x_min":0,"x_max":354,"ha":354,"o":"m 330 690 l 330 660 q 259 583 229 502 q 200 422 200 291 q 200 156 230 74 q 259 -7 330 -83 l 330 -113 q 101 43 101 288 q 101 383 127 450 q 154 518 205 579 q 256 640 330 690 z"},"C":{"x_min":0,"x_max":615,"ha":615,"o":"m 589 119 q 434 -14 307 -14 q 203 -14 120 65 q 37 145 37 284 q 37 381 80 458 q 123 534 202 586 q 281 639 392 639 q 488 639 574 608 l 574 461 l 540 461 q 533 530 479 569 q 424 608 348 608 q 242 608 182 530 q 121 453 121 340 q 121 218 190 137 q 259 57 367 57 q 475 57 589 149 z"},"W":{"x_min":0,"x_max":969,"ha":969,"o":"m 27 625 l 198 625 l 198 601 q 180 601 180 585 q 180 581 182 575 l 336 117 l 418 322 q 454 412 454 493 q 454 597 372 601 l 372 625 l 544 625 l 544 601 q 523 601 523 585 q 523 581 525 575 l 682 117 l 782 370 q 828 486 828 535 q 828 573 810 587 q 792 600 749 601 l 749 625 l 968 625 l 968 601 q 939 601 914 567 q 889 533 861 465 l 666 -23 l 637 -23 l 495 390 q 448 305 418 230 l 318 -23 l 290 -23 l 125 462 q 122 473 100 522 q 79 571 62 585 q 45 600 27 601 z"},"A":{"x_min":0,"x_max":604,"ha":604,"o":"m 304 650 l 333 650 l 506 151 q 525 96 548 60 q 570 25 603 23 l 603 0 l 428 0 l 428 23 l 439 23 q 447 23 447 40 q 447 44 445 50 l 387 220 l 173 220 q 140 125 140 79 q 140 55 156 39 q 171 23 197 23 l 223 23 l 223 0 l 4 0 l 4 23 q 59 26 104 140 z m 287 510 l 185 250 l 376 250 z"},"f":{"x_min":0,"x_max":312,"ha":312,"o":"m 26 410 l 47 410 q 60 410 76 419 q 92 429 105 476 q 131 569 182 618 q 233 667 290 667 q 308 667 339 658 l 339 534 l 304 534 q 302 624 244 624 q 212 624 191 590 q 169 556 169 501 q 169 410 254 410 l 294 410 l 294 387 l 175 387 l 175 100 q 175 56 193 40 q 211 24 250 23 l 250 0 l 26 0 l 26 23 q 68 24 84 42 q 101 60 101 100 l 101 387 l 26 387 z"},"Q":{"x_min":0,"x_max":729,"ha":729,"o":"m 205 20 q 126 53 83 125 q 40 196 40 284 q 40 384 89 461 q 139 539 217 589 q 296 639 394 639 q 479 639 543 603 q 607 567 650 501 q 693 435 693 344 q 693 210 606 115 q 519 19 405 -4 q 442 -13 513 -72 q 585 -132 620 -132 q 642 -132 663 -117 q 685 -103 724 -64 l 724 -96 q 671 -156 642 -179 q 612 -202 582 -202 q 561 -202 533 -188 q 506 -174 439 -118 q 410 -94 354 -53 q 299 -13 285 -6 q 271 0 258 0 q 220 0 156 -64 l 156 -34 q 179 -2 205 20 z m 330 596 q 239 596 180 530 q 121 463 121 364 q 121 269 158 197 q 196 126 261 79 q 326 32 405 32 q 492 32 552 97 q 613 162 613 260 q 613 352 571 433 q 528 513 460 555 q 393 596 330 596 z"},"w":{"x_min":0,"x_max":750,"ha":750,"o":"m 13 447 l 169 447 l 169 424 q 150 423 150 409 q 150 402 153 392 l 258 89 l 313 222 q 348 307 348 365 q 348 422 279 424 l 279 447 l 438 447 l 438 424 q 417 424 417 410 q 417 403 421 389 l 526 89 l 586 236 q 619 314 619 367 q 619 395 603 409 q 586 424 547 424 l 547 447 l 757 447 l 757 424 q 725 419 700 389 q 676 359 644 283 l 516 -22 l 487 -22 l 382 278 q 359 235 347 209 l 330 174 q 320 155 313 138 l 248 -22 l 218 -22 l 106 303 q 82 374 61 398 q 41 422 13 424 z"},"-":{"x_min":0,"x_max":406,"ha":406,"o":"m 329 272 l 349 261 q 311 190 269 190 q 248 190 191 208 q 144 222 129 222 q 102 222 81 186 l 62 196 q 98 268 140 268 q 159 268 210 252 q 262 236 280 236 q 306 236 329 272 z"},"E":{"x_min":0,"x_max":479,"ha":479,"o":"m 413 649 l 436 649 l 436 462 l 400 462 q 399 536 358 568 q 317 601 233 601 l 196 601 q 190 548 190 506 q 190 422 222 383 q 255 343 327 343 l 375 343 l 375 309 l 196 304 l 196 23 l 248 23 q 412 23 436 180 l 470 180 l 430 -21 l 406 -21 q 405 0 387 0 l 31 0 l 31 23 q 75 24 90 40 q 105 56 105 101 l 105 523 q 105 571 89 586 q 72 600 31 601 l 31 625 l 380 625 q 412 625 413 649 z"},"s":{"x_min":0,"x_max":365,"ha":365,"o":"m 73 150 q 77 87 110 52 q 142 17 188 17 q 225 17 249 40 q 273 62 273 98 q 273 129 255 150 q 236 171 182 206 q 144 230 112 251 q 80 272 68 294 q 55 316 55 339 q 55 387 99 424 q 143 461 215 461 q 259 461 311 441 l 311 313 l 275 313 q 275 368 245 400 q 215 433 177 433 q 149 433 134 416 q 119 398 119 375 q 119 349 136 330 q 153 310 205 278 q 294 222 316 199 q 339 175 339 137 q 339 76 285 31 q 231 -14 161 -14 q 108 -14 40 15 l 40 150 z"},">":{"x_min":0,"x_max":667,"ha":667,"o":"m 69 561 l 597 338 l 597 291 l 69 69 l 69 126 l 527 314 l 69 503 z"},"l":{"x_min":0,"x_max":271,"ha":271,"o":"m 199 671 q 178 661 178 636 l 178 100 q 178 57 196 41 q 214 24 253 23 l 253 0 l 29 0 l 29 23 q 69 24 86 41 q 104 58 104 100 l 104 564 q 104 609 67 609 q 51 609 29 601 l 29 625 l 199 691 z"},"8":{"x_min":0,"x_max":552,"ha":552,"o":"m 232 322 q 228 324 204 337 q 140 370 114 398 q 88 427 88 475 q 88 539 158 589 q 228 639 317 639 q 381 639 428 611 q 476 583 476 534 q 476 499 447 463 q 419 428 325 361 q 351 347 373 336 q 458 291 490 258 q 521 224 521 176 q 521 124 486 85 q 451 47 390 16 q 329 -14 248 -14 q 149 -14 97 28 q 45 71 45 128 q 45 167 73 205 q 101 244 197 300 q 220 314 232 322 z m 304 374 q 354 417 375 450 q 396 482 396 518 q 396 561 364 586 q 332 611 280 611 q 227 611 194 583 q 161 554 161 513 q 161 484 183 453 q 205 421 304 374 z m 256 310 q 192 268 163 231 q 134 195 134 147 q 134 86 178 51 q 221 15 284 15 q 353 15 395 56 q 437 97 437 147 q 437 185 416 210 q 396 235 357 254 q 319 273 256 310 z"},"\\":{"x_min":0,"x_max":510,"ha":510,"o":"m 55 696 l 109 696 l 455 -18 l 401 -18 z"},"e":{"x_min":0,"x_max":438,"ha":438,"o":"m 418 123 q 309 -14 206 -14 q 133 -14 77 49 q 21 112 21 199 q 21 299 88 380 q 154 460 244 460 q 316 460 358 409 q 401 357 403 284 l 88 284 q 87 265 87 256 q 87 169 133 112 q 179 54 247 54 q 331 54 418 155 z m 323 308 q 317 366 287 397 q 256 429 214 429 q 170 429 135 395 q 101 360 93 308 z"},"b":{"x_min":0,"x_max":510,"ha":510,"o":"m 162 689 l 162 669 q 148 661 148 643 l 148 309 q 240 414 278 437 q 315 460 354 460 q 417 460 454 411 q 492 361 492 285 q 492 220 464 159 q 437 99 394 60 q 350 21 312 10 q 273 0 216 0 l 171 0 q 120 0 103 -7 q 87 -14 79 -31 l 46 -31 q 59 -8 66 29 q 74 66 74 85 l 74 566 q 74 609 41 609 q 26 609 0 598 l 0 622 z m 148 76 q 208 40 275 40 q 324 40 356 65 q 388 91 403 135 q 418 179 418 235 q 418 308 390 351 q 362 395 312 395 q 248 395 195 321 q 142 248 142 146 q 142 115 148 76 z"},"%":{"x_min":0,"x_max":719,"ha":719,"o":"m 555 652 l 597 652 l 164 -30 l 122 -30 z m 204 632 q 262 632 299 591 q 336 549 336 483 q 336 407 288 352 q 239 296 171 296 q 115 296 78 338 q 41 379 41 443 q 41 521 90 577 q 139 632 204 632 z m 174 600 q 139 600 119 572 q 99 543 99 495 q 99 431 128 379 q 158 328 205 328 q 240 328 259 357 q 278 387 278 438 q 278 499 249 550 q 219 600 174 600 z m 546 327 q 606 327 642 284 q 678 241 678 178 q 678 101 630 46 q 583 -10 516 -10 q 456 -10 419 33 q 383 76 383 136 q 383 210 429 269 q 475 327 546 327 z m 516 295 q 479 295 460 265 q 441 235 441 193 q 441 129 470 77 q 499 24 544 24 q 582 24 602 53 q 622 83 622 129 q 622 199 590 247 q 558 295 516 295 z"},"m":{"x_min":0,"x_max":802,"ha":802,"o":"m 440 316 q 516 411 554 436 q 593 461 630 461 q 665 461 688 437 q 710 413 710 373 l 710 100 q 710 56 728 40 q 746 24 785 23 l 785 0 l 615 0 l 615 23 q 636 24 636 46 l 636 326 q 636 366 623 385 q 610 405 584 405 q 527 405 481 322 q 435 239 435 131 q 435 70 453 47 q 472 24 515 23 l 515 0 l 346 0 l 346 23 q 367 24 367 42 l 367 342 q 367 370 353 387 q 339 404 318 404 q 259 404 213 321 q 167 238 167 129 q 167 70 186 47 q 204 23 247 23 l 247 0 l 25 0 l 25 23 q 65 24 82 41 q 99 58 99 100 l 99 355 q 99 396 67 396 q 51 396 25 385 l 25 410 l 150 459 l 173 459 l 173 311 q 247 410 286 435 q 325 460 361 460 q 401 460 421 432 q 441 404 441 347 q 441 334 440 316 z"},"#":{"x_min":0,"x_max":667,"ha":667,"o":"m 44 461 l 205 461 l 248 662 l 299 662 l 256 461 l 471 461 l 513 662 l 563 662 l 521 461 l 622 461 l 622 411 l 512 411 l 472 221 l 622 221 l 622 170 l 462 170 l 419 -30 l 369 -30 l 411 170 l 195 170 l 153 -30 l 103 -30 l 144 170 l 44 170 l 44 221 l 155 221 l 195 411 l 44 411 z m 246 411 l 206 222 l 421 222 l 461 411 z"},",":{"x_min":0,"x_max":240,"ha":240,"o":"m 60 -218 l 60 -190 q 105 -163 137 -116 q 169 -70 169 -26 q 169 -1 155 23 q 147 12 136 6 q 125 0 110 0 q 88 0 75 14 q 61 28 61 49 q 61 74 82 91 q 103 107 136 107 q 176 107 200 83 q 224 59 224 19 q 224 -45 180 -109 q 137 -172 60 -218 z"},"n":{"x_min":0,"x_max":552,"ha":552,"o":"m 25 410 l 152 461 l 173 461 l 173 301 q 243 395 289 428 q 334 461 375 461 q 457 461 457 355 l 457 100 q 457 56 475 40 q 493 24 532 23 l 532 0 l 362 0 l 362 23 q 382 24 382 47 l 382 349 q 382 375 369 390 q 356 405 335 405 q 273 405 220 318 q 167 231 167 118 q 167 61 185 43 q 203 24 248 23 l 248 0 l 25 0 l 25 23 q 65 24 82 41 q 100 57 100 100 l 100 349 q 100 397 67 397 q 56 397 25 385 z"},"h":{"x_min":0,"x_max":552,"ha":552,"o":"m 192 691 l 192 670 q 172 663 172 635 l 172 299 q 229 380 281 421 q 332 461 377 461 q 415 461 436 435 q 457 407 457 354 l 457 100 q 457 58 474 41 q 491 24 532 23 l 532 0 l 361 0 l 361 23 q 383 24 383 50 l 383 341 q 383 373 370 389 q 357 405 331 405 q 271 405 219 316 q 167 228 167 122 q 167 23 227 23 l 246 23 l 246 0 l 24 0 l 24 23 q 62 24 80 40 q 98 56 98 100 l 98 582 q 98 610 66 610 q 48 610 24 601 l 24 625 z"},"z":{"x_min":0,"x_max":448,"ha":448,"o":"m 61 469 l 84 469 l 84 465 q 84 447 110 447 l 405 447 l 405 423 l 119 23 l 223 23 q 379 23 384 148 l 417 148 l 417 -22 l 394 -22 q 393 -9 385 -4 q 377 0 354 0 l 30 0 l 30 23 l 315 424 l 223 424 q 100 424 93 314 l 61 314 z"},"B":{"x_min":0,"x_max":542,"ha":542,"o":"m 28 625 l 324 625 q 419 625 449 593 q 479 561 479 514 q 479 464 444 419 q 410 373 340 332 q 425 331 466 307 q 507 283 507 220 q 507 132 432 66 q 356 0 257 0 l 28 0 l 28 23 q 71 24 87 40 q 103 56 103 101 l 103 524 q 103 571 86 586 q 69 600 28 601 z m 193 578 l 193 351 l 288 351 q 333 351 362 375 q 391 399 391 449 q 391 516 356 559 q 321 602 270 602 q 222 602 193 578 z m 193 329 l 193 71 q 243 32 298 32 q 350 32 382 67 q 414 102 414 160 q 414 231 369 280 q 325 329 243 329 z"},"K":{"x_min":0,"x_max":583,"ha":583,"o":"m 29 625 l 268 625 l 268 601 q 224 600 208 584 q 193 568 193 523 l 193 326 l 314 444 q 343 473 368 509 q 394 545 394 568 q 394 600 344 601 l 344 625 l 568 625 l 568 601 q 505 593 433 523 l 274 371 l 446 142 q 534 23 597 23 l 597 0 l 439 0 l 193 330 l 193 101 q 193 26 268 23 l 268 0 l 29 0 l 29 23 q 73 24 88 40 q 103 57 103 101 l 103 523 q 103 571 86 586 q 70 600 29 601 z"},"R":{"x_min":0,"x_max":542,"ha":542,"o":"m 27 625 l 338 625 q 407 625 442 598 q 476 571 476 517 q 476 457 437 405 q 398 353 321 309 l 430 140 q 503 27 565 23 l 565 0 l 448 0 q 413 0 385 42 l 192 343 l 192 101 q 192 26 267 23 l 267 0 l 27 0 l 27 23 q 71 24 86 40 q 102 57 102 101 l 102 524 q 102 571 85 586 q 68 600 27 601 z m 192 577 l 192 374 q 249 332 290 332 q 333 332 354 361 q 376 390 376 448 q 376 518 344 560 q 312 602 267 602 q 227 602 192 577 z"},"T":{"x_min":0,"x_max":521,"ha":521,"o":"m 11 646 l 32 646 q 39 625 51 625 l 478 625 q 495 625 495 646 l 518 646 l 518 461 l 483 461 q 482 601 335 601 l 309 601 l 309 101 q 309 25 383 23 l 383 0 l 144 0 l 144 23 q 188 24 203 40 q 218 57 218 101 l 218 601 l 185 601 q 49 601 45 461 l 11 461 z"},"P":{"x_min":0,"x_max":479,"ha":479,"o":"m 29 625 l 338 625 q 418 625 456 594 q 494 562 494 513 q 494 433 420 362 q 346 291 268 291 q 250 291 232 296 q 213 300 193 309 l 193 101 q 193 26 268 23 l 268 0 l 29 0 l 29 23 q 73 24 88 40 q 103 56 103 101 l 103 524 q 103 571 86 586 q 70 600 29 601 z m 193 569 l 193 375 q 225 351 253 339 q 281 328 305 328 q 351 328 374 358 q 397 389 397 451 q 397 514 367 557 q 338 601 282 601 q 236 601 193 569 z"},"|":{"x_min":0,"x_max":510,"ha":510,"o":"m 229 691 l 282 691 l 282 -208 l 229 -208 z"},"t":{"x_min":0,"x_max":292,"ha":292,"o":"m 193 601 l 193 576 q 163 568 163 506 q 163 464 170 448 q 177 431 195 420 q 212 410 242 410 l 283 410 l 283 388 l 163 388 l 163 74 q 163 59 169 51 q 175 43 188 43 q 211 43 259 83 q 264 87 267 89 l 267 61 q 184 -14 135 -14 q 112 -14 100 4 q 89 21 89 57 l 89 388 l 14 388 l 14 410 q 57 410 75 427 q 93 444 93 487 l 93 561 z"},"M":{"x_min":0,"x_max":885,"ha":885,"o":"m 78 625 l 237 625 l 447 108 l 567 392 q 635 552 656 625 l 831 625 l 831 601 q 788 600 771 587 q 754 574 754 539 q 754 534 755 527 l 792 138 q 799 66 815 45 q 831 25 879 23 l 879 0 l 639 0 l 639 23 q 675 24 690 38 q 706 52 706 91 q 706 99 705 108 l 667 496 q 583 348 547 264 l 425 -23 l 403 -23 l 174 545 l 158 370 q 146 251 146 182 q 146 28 224 23 l 224 0 l 3 0 l 3 23 q 37 31 57 67 q 77 103 98 195 q 120 287 129 392 l 142 521 q 142 531 142 542 q 142 576 128 588 q 115 600 78 601 z"},"g":{"x_min":0,"x_max":500,"ha":500,"o":"m 253 176 q 247 175 235 173 q 200 167 183 167 q 123 167 83 200 q 44 232 44 284 q 44 352 111 406 q 177 460 258 460 q 279 460 294 456 q 309 452 349 436 q 391 418 410 414 q 428 409 454 409 l 488 409 l 488 386 l 389 386 q 400 360 400 339 q 400 310 385 279 q 369 249 310 197 q 251 147 251 126 q 251 110 272 98 q 293 84 345 67 q 420 42 456 18 q 491 -6 491 -47 q 491 -120 397 -172 q 303 -223 186 -223 q 99 -223 41 -193 q -17 -162 -17 -112 q -17 -63 48 -24 q 113 15 223 36 q 205 49 196 62 q 187 76 187 90 q 187 110 201 128 q 214 146 253 176 z m 227 431 q 177 431 150 396 q 123 360 123 312 q 123 262 150 228 q 177 193 222 193 q 266 193 295 227 q 324 261 324 312 q 324 364 296 397 q 268 431 227 431 z m 253 23 q 153 -2 103 -34 q 52 -66 52 -104 q 52 -138 94 -166 q 135 -193 217 -193 q 312 -193 367 -157 q 422 -121 422 -75 q 422 -49 400 -35 q 377 -20 309 3 z"},"j":{"x_min":0,"x_max":260,"ha":260,"o":"m 137 664 q 158 664 171 650 q 185 636 185 617 q 185 598 171 584 q 157 571 138 571 q 119 571 105 584 q 92 598 92 617 q 92 637 106 650 q 120 664 137 664 z m 26 409 l 153 460 l 175 460 l 175 37 q 175 -50 119 -137 q 63 -224 -11 -224 q -36 -224 -63 -212 l -63 -80 l -28 -80 q -28 -128 -10 -153 q 8 -178 34 -178 q 60 -178 80 -146 q 101 -113 101 -65 l 101 350 q 101 395 66 395 q 49 395 26 384 z"},"i":{"x_min":0,"x_max":271,"ha":271,"o":"m 140 664 q 161 664 174 650 q 188 636 188 617 q 188 598 174 584 q 160 571 141 571 q 122 571 108 584 q 94 598 94 617 q 94 638 108 651 q 123 664 140 664 z m 29 23 q 66 24 85 40 q 104 55 104 100 l 104 367 q 104 397 68 397 q 56 397 41 391 q 33 388 29 387 l 29 412 l 154 461 l 178 461 l 178 100 q 178 56 196 40 q 214 24 252 23 l 252 0 l 29 0 z"},"y":{"x_min":0,"x_max":469,"ha":469,"o":"m -1 447 l 157 447 l 157 424 q 139 423 139 412 q 139 406 142 400 l 263 99 l 311 226 q 343 312 343 369 q 343 398 326 411 q 310 424 273 424 l 273 447 l 477 447 l 477 424 q 445 422 428 404 q 412 385 385 323 l 218 -111 q 179 -211 72 -221 l -7 -127 l 20 -106 q 58 -154 105 -154 q 130 -154 151 -139 q 172 -123 183 -102 q 194 -81 216 -23 l 224 -3 l 90 329 q 69 382 49 403 q 30 423 -1 424 z"},"@":{"x_min":0,"x_max":917,"ha":917,"o":"m 682 464 l 614 235 q 578 114 578 81 q 578 61 592 51 q 606 41 623 41 q 691 41 761 135 q 832 229 832 357 q 832 499 742 584 q 652 668 511 668 q 395 668 296 606 q 197 544 143 429 q 89 313 89 194 q 89 91 140 -3 q 191 -97 281 -144 q 371 -192 477 -192 q 616 -192 722 -113 q 829 -35 871 80 l 897 80 q 852 -52 736 -135 q 620 -218 476 -218 q 354 -218 253 -161 q 153 -104 101 -1 q 50 102 50 221 q 50 416 181 554 q 312 693 512 693 q 666 693 761 602 q 857 510 857 359 q 857 250 815 173 q 774 97 720 53 q 666 8 594 8 q 554 8 535 28 q 517 48 517 77 q 517 96 529 152 q 452 58 413 36 q 374 14 343 14 q 302 14 275 43 q 248 72 248 126 q 248 208 296 288 q 344 367 405 417 q 466 468 520 468 q 551 468 572 451 q 593 434 603 399 l 618 455 z m 378 66 q 418 66 470 116 q 522 167 553 242 q 584 316 584 370 q 584 400 568 423 q 552 445 518 445 q 450 445 383 335 q 316 225 316 135 q 316 104 333 85 q 349 66 378 66 z"},".":{"x_min":0,"x_max":240,"ha":240,"o":"m 120 102 q 146 102 163 85 q 180 67 180 44 q 180 20 163 3 q 146 -14 121 -14 q 97 -14 80 3 q 62 20 62 44 q 62 69 80 85 q 98 102 120 102 z"},"p":{"x_min":0,"x_max":531,"ha":531,"o":"m 165 9 l 165 -106 q 165 -149 183 -166 q 200 -183 241 -184 l 241 -208 l 18 -208 l 18 -184 q 59 -183 75 -166 q 92 -148 92 -106 l 92 360 q 92 397 63 397 q 53 397 18 384 l 18 409 l 143 460 l 165 460 l 165 301 q 234 396 278 429 q 322 461 366 461 q 425 461 467 411 q 509 362 509 280 q 509 165 433 75 q 356 -14 261 -14 q 239 -14 215 -8 q 191 -2 165 9 z m 165 71 q 199 43 229 30 q 260 16 286 16 q 348 16 392 78 q 436 140 436 235 q 436 310 407 357 q 378 405 330 405 q 267 405 213 322 q 160 240 160 133 q 160 110 165 71 z"},"X":{"x_min":0,"x_max":604,"ha":604,"o":"m 32 625 l 223 625 l 223 601 q 203 600 203 589 q 203 585 205 582 l 322 386 q 408 507 408 553 q 408 575 394 588 q 379 601 334 601 l 334 625 l 568 625 l 568 601 q 501 591 425 489 l 334 364 l 460 157 l 490 108 q 504 84 525 64 q 545 43 560 35 q 575 27 598 23 l 598 0 l 403 0 l 403 23 q 423 24 423 39 q 423 43 419 49 l 279 284 q 167 138 167 73 q 167 24 233 23 l 233 0 l 1 0 l 1 23 q 66 29 145 140 l 265 308 l 156 489 q 92 596 32 601 z"},"*":{"x_min":0,"x_max":354,"ha":354,"o":"m 44 603 q 44 628 69 628 q 85 628 118 593 q 148 561 160 561 q 168 561 168 571 q 168 586 158 628 q 150 657 150 666 q 150 675 157 683 q 165 691 176 691 q 202 691 202 664 q 202 656 193 621 q 183 580 183 570 q 183 561 192 561 q 204 561 230 589 q 266 627 284 627 q 309 627 309 602 q 309 587 295 580 q 281 572 243 562 q 201 551 201 541 q 201 530 249 518 q 284 508 297 501 q 309 493 309 480 q 309 470 302 462 q 295 454 284 454 q 267 454 232 491 q 202 523 191 523 q 183 523 183 512 q 183 498 193 459 q 201 428 201 418 q 201 409 194 400 q 187 392 175 392 q 164 392 156 400 q 149 409 149 417 q 149 429 161 471 q 169 504 169 512 q 169 523 162 523 q 151 523 121 492 q 83 455 67 455 q 43 455 43 479 q 43 495 56 502 q 69 509 104 518 q 152 530 152 541 q 152 552 101 565 q 66 575 55 582 q 44 588 44 603 z"},"Y":{"x_min":0,"x_max":583,"ha":583,"o":"m 17 625 l 194 625 l 194 601 q 176 601 176 588 q 176 584 178 579 l 331 274 q 450 460 450 545 q 450 575 432 588 q 414 601 370 601 l 370 625 l 604 625 l 604 601 q 575 601 548 576 q 521 551 487 492 l 339 240 l 339 101 q 339 26 413 23 l 413 0 l 174 0 l 174 23 q 218 24 233 40 q 249 57 249 101 l 249 240 l 126 485 q 99 541 73 571 q 48 601 17 601 z"},"c":{"x_min":0,"x_max":448,"ha":448,"o":"m 411 120 q 304 -14 204 -14 q 140 -14 81 41 q 22 95 22 196 q 22 301 94 381 q 165 461 265 461 q 326 461 397 429 l 397 302 l 362 302 q 360 360 325 396 q 290 432 236 432 q 169 432 131 374 q 92 317 92 242 q 92 161 134 106 q 176 51 243 51 q 283 51 322 75 q 360 99 411 154 z"},"!":{"x_min":0,"x_max":302,"ha":302,"o":"m 29 625 l 278 625 l 278 601 q 234 600 220 586 q 206 572 204 520 l 184 150 l 115 150 l 103 520 q 101 571 85 586 q 69 601 29 601 z m 146 104 q 172 104 189 86 q 207 69 207 45 q 207 21 189 3 q 172 -14 147 -14 q 123 -14 106 3 q 89 21 89 45 q 89 70 106 87 q 124 104 146 104 z"},"/":{"x_min":0,"x_max":510,"ha":510,"o":"m 401 696 l 455 696 l 109 -18 l 55 -18 z"},"[":{"x_min":0,"x_max":312,"ha":312,"o":"m 104 691 l 263 691 l 263 661 l 174 661 l 174 -82 l 263 -82 l 263 -112 l 104 -112 z"},"6":{"x_min":0,"x_max":552,"ha":552,"o":"m 152 248 q 193 295 239 319 q 285 343 335 343 q 408 343 459 304 q 510 266 510 189 q 510 110 442 48 q 375 -14 281 -14 q 176 -14 118 67 q 61 149 61 264 q 61 408 143 523 q 225 639 353 639 q 408 639 467 615 l 467 447 l 431 447 q 430 522 400 567 q 369 612 321 612 q 272 612 231 567 q 189 522 168 447 q 147 372 147 310 q 147 289 152 248 z m 301 305 q 245 305 212 263 q 179 221 179 160 q 179 96 212 54 q 246 12 297 12 q 350 12 383 54 q 417 97 417 161 q 417 226 383 265 q 350 305 301 305 z"},"r":{"x_min":0,"x_max":396,"ha":396,"o":"m 25 409 l 153 461 l 175 461 l 175 302 q 225 388 265 424 q 304 460 346 460 q 362 460 384 453 l 384 302 l 350 302 q 349 391 298 391 q 248 391 209 308 q 169 226 169 122 q 169 61 192 42 q 215 23 279 23 l 279 0 l 25 0 l 25 23 q 65 24 83 41 q 100 57 100 100 l 100 353 q 100 396 68 396 q 55 396 25 385 z"},"2":{"x_min":0,"x_max":552,"ha":552,"o":"m 107 566 q 166 603 221 621 q 276 639 327 639 q 394 639 437 605 q 480 572 480 516 q 480 466 451 419 q 421 372 328 281 l 120 76 l 396 76 q 438 76 457 94 q 475 113 481 150 l 505 150 l 470 -23 l 447 -23 l 447 -17 q 447 0 429 0 l 48 0 l 48 23 l 190 195 q 223 234 286 319 q 349 403 367 448 q 385 493 385 523 q 385 559 362 586 q 338 614 298 614 q 239 614 193 556 q 147 499 141 417 l 107 417 z"},"{":{"x_min":0,"x_max":479,"ha":479,"o":"m 140 226 l 140 244 q 206 258 231 289 q 257 320 257 351 q 257 375 249 411 q 236 474 236 502 q 236 571 282 624 q 328 677 406 690 l 406 670 q 356 663 327 631 q 298 600 298 559 q 298 536 304 503 q 319 424 319 400 q 319 346 281 304 q 243 261 179 236 q 317 180 317 65 q 317 41 304 -22 q 296 -63 296 -88 q 296 -176 406 -202 l 406 -219 q 329 -206 282 -153 q 234 -100 234 -31 q 234 -3 247 56 q 256 95 256 110 q 256 161 219 191 q 183 221 140 226 z"},"9":{"x_min":0,"x_max":552,"ha":552,"o":"m 413 375 q 368 329 321 306 q 273 283 224 283 q 142 283 99 329 q 55 376 55 438 q 55 518 125 578 q 195 639 281 639 q 377 639 440 564 q 502 490 502 359 q 502 257 463 172 q 424 87 359 36 q 294 -14 214 -14 q 154 -14 99 11 l 99 177 l 134 177 q 135 103 165 58 q 195 13 241 13 q 318 13 366 102 q 415 192 415 323 q 415 339 413 375 z m 269 615 q 210 615 178 570 q 146 525 146 463 q 146 399 181 359 q 215 319 268 319 q 319 319 352 362 q 384 404 384 466 q 384 535 348 575 q 312 615 269 615 z"}," ":{"x_min":0,"x_max":250,"ha":250,"o":""},"I":{"x_min":0,"x_max":302,"ha":302,"o":"m 274 601 q 230 600 215 584 q 200 568 200 524 l 200 101 q 200 26 274 23 l 274 0 l 36 0 l 36 23 q 80 24 95 40 q 110 57 110 101 l 110 524 q 110 571 93 586 q 77 600 36 601 l 36 625 l 274 625 z"},"H":{"x_min":0,"x_max":688,"ha":688,"o":"m 30 625 l 269 625 l 269 601 q 225 600 209 584 q 194 568 194 524 l 194 356 l 492 356 l 492 524 q 492 571 475 586 q 458 600 418 601 l 418 625 l 657 625 l 657 601 q 613 600 598 584 q 583 568 583 524 l 583 101 q 583 53 599 39 q 616 24 657 23 l 657 0 l 418 0 l 418 23 q 461 24 477 40 q 492 57 492 101 l 492 326 l 194 326 l 194 101 q 194 25 269 23 l 269 0 l 30 0 l 30 23 q 73 24 89 40 q 104 57 104 101 l 104 524 q 104 571 87 586 q 70 600 30 601 z"},"4":{"x_min":0,"x_max":552,"ha":552,"o":"m 368 644 l 392 644 l 392 228 l 492 228 l 492 178 l 392 178 l 392 85 q 392 23 454 23 l 468 23 l 468 0 l 223 0 l 223 23 l 243 23 q 312 23 312 85 l 312 178 l 31 178 l 31 201 l 223 443 q 318 563 368 644 z m 312 486 q 246 423 190 353 l 91 228 l 312 228 z"},"~":{"x_min":0,"x_max":667,"ha":667,"o":"m 572 385 l 595 385 q 594 321 559 283 q 524 245 473 245 q 448 245 420 253 q 392 262 291 304 q 216 334 184 334 q 112 334 95 246 l 72 246 q 74 317 110 352 q 146 386 189 386 q 236 386 375 327 q 449 295 482 295 q 519 295 544 319 q 568 343 572 385 z"},"D":{"x_min":0,"x_max":708,"ha":708,"o":"m 31 625 l 415 625 q 544 625 608 563 q 672 501 672 378 q 672 221 568 110 q 464 0 287 0 l 31 0 l 31 23 q 75 24 90 40 q 105 57 105 101 l 105 524 q 105 571 89 586 q 72 600 31 601 z m 196 565 l 196 77 q 274 32 348 32 q 453 32 517 110 q 581 189 581 314 q 581 440 525 521 q 469 603 337 603 q 252 603 196 565 z"},"^":{"x_min":0,"x_max":469,"ha":469,"o":"m 243 625 l 451 274 l 406 274 l 235 561 l 64 274 l 18 274 l 229 625 z"},"0":{"x_min":0,"x_max":552,"ha":552,"o":"m 300 642 q 389 642 452 567 q 515 491 515 364 q 515 205 428 95 q 341 -14 244 -14 q 191 -14 141 20 q 91 54 65 115 q 38 175 38 260 q 38 421 123 532 q 208 642 300 642 z m 257 588 q 183 588 144 517 q 105 445 105 335 q 105 215 162 129 q 219 43 295 43 q 361 43 402 106 q 443 169 443 289 q 443 372 418 442 q 394 512 346 550 q 298 588 257 588 z"},"F":{"x_min":0,"x_max":427,"ha":427,"o":"m 413 646 l 435 646 l 435 460 l 399 460 q 399 537 357 569 q 315 601 231 601 l 194 601 q 189 548 189 505 q 189 412 221 372 q 253 331 333 331 l 374 331 l 374 297 l 194 293 l 194 101 q 194 26 269 23 l 269 0 l 30 0 l 30 23 q 73 24 89 40 q 104 57 104 101 l 104 524 q 104 571 87 586 q 71 600 30 601 l 30 625 l 399 625 q 403 625 407 631 q 412 638 413 646 z"},"`":{"x_min":0,"x_max":333,"ha":333,"o":"m 182 520 l 114 596 q 92 621 87 627 q 82 634 82 643 q 82 655 90 664 q 99 673 111 673 q 121 673 127 669 q 133 665 144 643 l 200 530 z"},"k":{"x_min":0,"x_max":500,"ha":500,"o":"m 173 239 l 173 100 l 173 88 q 173 25 248 23 l 248 0 l 25 0 l 25 23 q 63 24 81 40 q 99 55 99 100 l 99 557 q 99 609 64 609 q 50 609 25 601 l 25 625 l 193 691 l 193 671 q 173 665 173 642 l 173 239 l 259 310 l 263 314 l 285 334 q 322 366 322 394 q 322 424 263 425 l 263 447 l 492 447 l 492 425 q 431 424 343 350 l 244 268 l 340 146 q 436 24 512 23 l 512 0 l 362 0 z"},"u":{"x_min":0,"x_max":552,"ha":552,"o":"m 15 430 l 183 459 l 183 440 q 162 435 162 407 l 162 104 q 162 75 175 58 q 188 41 210 41 q 267 41 322 125 q 378 209 378 324 q 378 368 366 389 q 355 411 326 411 q 316 411 298 407 l 298 430 l 468 459 l 468 440 q 446 437 446 407 l 446 93 q 446 47 480 47 q 500 47 531 62 l 531 38 l 396 -16 l 373 -16 l 373 146 q 296 42 251 14 q 207 -14 168 -14 q 88 -14 88 100 l 88 367 q 88 410 42 410 q 33 410 15 407 z"},"]":{"x_min":0,"x_max":312,"ha":312,"o":"m 66 690 l 205 690 l 205 -112 l 66 -112 l 66 -82 l 135 -82 l 135 660 l 66 660 z"},"U":{"x_min":0,"x_max":677,"ha":677,"o":"m 452 625 l 667 625 l 667 601 q 576 587 576 296 q 576 195 572 152 q 567 108 542 71 q 517 33 464 9 q 412 -14 339 -14 q 262 -14 208 8 q 154 31 126 73 q 97 115 97 177 l 97 523 q 97 571 80 586 q 63 600 23 601 l 23 625 l 262 625 l 262 601 q 218 600 203 584 q 188 568 188 523 l 188 181 q 188 132 203 100 q 218 68 259 42 q 299 17 360 17 q 420 17 462 39 q 504 61 523 104 q 542 148 542 236 q 542 429 521 513 q 501 597 452 601 z"},"o":{"x_min":0,"x_max":490,"ha":490,"o":"m 265 460 q 357 460 412 402 q 468 344 468 248 q 468 134 391 60 q 313 -14 221 -14 q 128 -14 74 45 q 21 104 21 198 q 21 310 97 385 q 173 460 265 460 z m 223 422 q 157 422 122 375 q 86 327 86 256 q 86 168 142 99 q 197 30 271 30 q 326 30 364 75 q 401 121 401 194 q 401 262 371 316 q 341 370 302 396 q 263 422 223 422 z"},"N":{"x_min":0,"x_max":677,"ha":677,"o":"m 32 625 l 192 625 l 547 147 l 547 292 q 547 432 526 514 q 505 596 458 601 l 458 625 l 672 625 l 672 601 q 583 593 583 308 l 583 -22 l 560 -22 l 138 547 l 138 365 q 138 193 159 111 q 181 29 229 23 l 229 0 l 17 0 l 17 23 q 105 37 105 360 l 105 528 q 105 572 89 586 q 72 600 32 601 z"},"+":{"x_min":0,"x_max":667,"ha":667,"o":"m 69 340 l 307 340 l 307 578 l 359 578 l 359 340 l 597 340 l 597 288 l 359 288 l 359 50 l 307 50 l 307 288 l 69 288 z"},"G":{"x_min":0,"x_max":667,"ha":667,"o":"m 414 23 q 348 -14 290 -14 q 227 -14 166 25 q 104 64 72 130 q 40 195 40 277 q 40 380 88 463 q 137 547 217 593 q 297 639 398 639 q 476 639 575 609 l 575 461 l 540 461 q 531 531 478 569 q 425 606 353 606 q 257 606 190 538 q 123 469 123 348 q 123 219 191 134 q 259 49 356 49 q 420 49 463 85 q 506 121 506 172 q 506 246 414 246 l 396 246 l 396 269 l 640 269 l 640 246 q 617 245 604 226 q 591 206 591 179 l 591 -22 l 566 -22 q 564 63 501 63 q 473 63 434 36 q 422 29 414 23 z"},"q":{"x_min":0,"x_max":521,"ha":521,"o":"m 469 475 q 438 421 438 330 l 438 -108 q 438 -149 455 -167 q 472 -185 513 -185 l 513 -208 l 290 -208 l 290 -185 q 330 -185 347 -167 q 363 -149 363 -108 l 363 136 q 283 44 238 15 q 193 -14 148 -14 q 92 -14 57 37 q 21 88 21 165 q 21 252 71 323 q 121 394 176 420 q 230 445 315 445 l 362 445 q 430 445 443 475 z m 363 373 q 298 411 240 411 q 179 411 139 354 q 99 297 99 206 q 99 124 132 86 q 164 49 202 49 q 262 49 316 124 q 370 200 370 309 q 370 337 363 373 z"},"d":{"x_min":0,"x_max":521,"ha":521,"o":"m 291 625 l 459 689 l 459 669 q 438 661 438 636 l 438 90 q 438 49 473 49 q 489 49 512 60 l 512 35 l 387 -14 l 364 -14 l 364 144 q 280 37 241 11 q 202 -14 164 -14 q 100 -14 61 44 q 21 102 21 176 q 21 279 97 370 q 173 461 265 461 q 285 461 310 455 q 335 448 364 435 l 364 566 q 364 608 333 608 q 316 608 291 598 z m 364 370 q 330 398 297 412 q 265 426 233 426 q 171 426 134 362 q 96 298 96 215 q 96 146 128 98 q 160 50 207 50 q 273 50 322 137 q 370 224 370 311 q 370 344 364 370 z"},"1":{"x_min":0,"x_max":552,"ha":552,"o":"m 141 564 l 378 647 l 378 627 q 363 623 350 608 q 338 593 338 571 l 338 94 q 338 58 353 41 q 368 23 404 23 l 428 23 l 428 0 l 170 0 l 170 23 l 194 23 q 259 23 259 85 l 259 520 q 259 562 222 562 q 205 562 141 540 z"},"5":{"x_min":0,"x_max":552,"ha":552,"o":"m 447 649 l 470 649 l 470 478 l 447 478 q 447 526 426 539 q 405 551 376 551 l 154 551 l 145 356 q 177 382 217 395 q 258 407 308 407 q 393 407 447 363 q 500 319 500 248 q 500 148 419 67 q 337 -14 233 -14 q 163 -14 97 18 l 97 180 l 131 180 q 141 106 181 64 q 220 22 276 22 q 339 22 374 70 q 408 118 408 191 q 408 275 368 326 q 327 377 266 377 q 227 377 196 358 q 165 338 140 299 l 111 299 l 126 625 l 417 625 q 446 625 447 649 z"}}}
